<svg xmlns="http://www.w3.org/2000/svg" xmlns:xlink="http://www.w3.org/1999/xlink" width="500" zoomAndPan="magnify" viewBox="0 0 375 374.999991" height="500" preserveAspectRatio="xMidYMid meet" version="1.0"><defs><g/></defs><rect x="-37.5" width="450" fill="#ffffff" y="-37.499999" height="449.999989" fill-opacity="1"/><rect x="-37.5" width="450" fill="#000000" y="-37.499999" height="449.999989" fill-opacity="1"/><g fill="#ffffff" fill-opacity="1"><g transform="translate(157.645878, 268.269657)"><g><path d="M 153.875 27.625 C 140.425781 27.625 129.414062 23.335938 120.84375 14.765625 C 114.488281 8.410156 110.304688 0.421875 108.296875 -9.203125 C 98.242188 -1.585938 85.910156 2.21875 71.296875 2.21875 C 59.753906 2.21875 49.242188 -0.289062 39.765625 -5.3125 C 30.296875 -10.34375 22.890625 -17.25 17.546875 -26.03125 C 12.203125 -34.820312 9.53125 -44.722656 9.53125 -55.734375 C 9.53125 -66.742188 12.203125 -76.664062 17.546875 -85.5 C 22.890625 -94.34375 30.269531 -101.195312 39.6875 -106.0625 C 49.113281 -110.9375 59.648438 -113.375 71.296875 -113.375 C 85.910156 -113.375 98.773438 -109.773438 109.890625 -102.578125 L 113.0625 -80.1875 L 111.640625 -80.1875 C 108.460938 -92.46875 101.257812 -100.832031 90.03125 -105.28125 C 84.53125 -107.5 78.285156 -108.609375 71.296875 -108.609375 C 57.003906 -108.609375 45.117188 -103.632812 35.640625 -93.6875 C 26.171875 -83.738281 21.4375 -71.113281 21.4375 -55.8125 C 21.4375 -40.519531 26.195312 -27.84375 35.71875 -17.78125 C 45.25 -7.726562 57.109375 -2.648438 71.296875 -2.546875 C 78.179688 -2.546875 84.742188 -3.757812 90.984375 -6.1875 C 97.234375 -8.625 102.582031 -12.015625 107.03125 -16.359375 L 107.03125 -44.46875 C 107.03125 -46.789062 106.34375 -48.5625 104.96875 -49.78125 C 103.59375 -51 101.632812 -51.609375 99.09375 -51.609375 L 96.546875 -51.609375 L 96.546875 -53.203125 L 127.671875 -53.203125 L 127.671875 -51.609375 L 125.296875 -51.609375 C 122.648438 -51.609375 120.632812 -51 119.25 -49.78125 C 117.875 -48.5625 117.238281 -46.789062 117.34375 -44.46875 L 117.34375 -20.015625 C 117.976562 -3.285156 123.429688 8.675781 133.703125 15.875 C 140.898438 20.957031 150.21875 23.5 161.65625 23.5 C 166.414062 23.5 171.601562 23.023438 177.21875 22.078125 L 177.375 23.65625 C 168.90625 26.300781 161.070312 27.625 153.875 27.625 Z M 153.875 27.625 "/></g></g></g><g fill="#ffffff" fill-opacity="1"><g transform="translate(74.240882, 213.156101)"><g><path d="M 174.671875 25.71875 C 175.304688 25.71875 175.941406 25.71875 176.578125 25.71875 L 176.578125 27.3125 C 173.617188 27.738281 170.3125 27.953125 166.65625 27.953125 C 163 27.953125 158.5 27.15625 153.15625 25.5625 C 147.8125 23.976562 142.96875 21.015625 138.625 16.671875 C 129.738281 7.773438 124.34375 -3.757812 122.4375 -17.9375 L 112.75 -88.609375 L 79.71875 -13.96875 C 76.75 -7.507812 74.945312 -2.113281 74.3125 2.21875 L 72.734375 2.21875 L 31.59375 -87.171875 L 24.609375 -8.25 C 24.398438 -6.457031 24.957031 -4.867188 26.28125 -3.484375 C 27.601562 -2.109375 29.054688 -1.421875 30.640625 -1.421875 L 33.1875 -1.421875 L 33.1875 0 L 2.375 0 L 2.375 -1.59375 L 4.921875 -1.59375 C 7.773438 -1.59375 10.285156 -2.460938 12.453125 -4.203125 C 14.628906 -5.953125 15.984375 -8.253906 16.515625 -11.109375 L 26.515625 -97.8125 C 17.203125 -116.132812 6.035156 -125.296875 -6.984375 -125.296875 C -8.148438 -125.296875 -9.367188 -125.238281 -10.640625 -125.125 L -10.640625 -126.71875 C -7.785156 -127.457031 -5.457031 -127.828125 -3.65625 -127.828125 C -1.851562 -127.828125 0.101562 -127.75 2.21875 -127.59375 C 4.34375 -127.4375 6.832031 -126.929688 9.6875 -126.078125 C 12.539062 -125.234375 15.238281 -123.988281 17.78125 -122.34375 C 20.320312 -120.707031 22.546875 -119.015625 24.453125 -117.265625 C 26.359375 -115.523438 28.160156 -113.59375 29.859375 -111.46875 C 32.710938 -107.664062 34.988281 -104.015625 36.6875 -100.515625 L 74.953125 -17.625 L 117.671875 -113.375 L 119.09375 -113.375 L 133.859375 -19.375 C 136.085938 -4.550781 140.878906 6.664062 148.234375 14.28125 C 155.585938 21.90625 164.398438 25.71875 174.671875 25.71875 Z M 174.671875 25.71875 "/></g></g></g><path fill="#000000" d="M 56.589844 179.496094 L 303.726562 179.496094 C 304.789062 179.496094 305.804688 179.917969 306.554688 180.667969 C 307.304688 181.417969 307.726562 182.4375 307.726562 183.5 L 307.726562 191.5 C 307.726562 192.5625 307.304688 193.582031 306.554688 194.332031 C 305.804688 195.082031 304.789062 195.503906 303.726562 195.503906 L 56.589844 195.503906 C 54.382812 195.503906 52.589844 193.710938 52.589844 191.5 L 52.589844 183.5 C 52.589844 181.289062 54.382812 179.496094 56.589844 179.496094 Z M 56.589844 179.496094 " fill-opacity="1" fill-rule="nonzero"/><g fill="#ffffff" fill-opacity="1"><g transform="translate(60.407916, 190.499987)"><g><path d="M 0.6875 0 L 0.96875 -7.109375 L 2.09375 -7.109375 L 4.703125 -1.625 L 7.296875 -7.109375 L 8.421875 -7.109375 L 8.640625 0 L 7.390625 0 L 7.25 -4.421875 L 5.140625 0 L 4.15625 0 L 2.078125 -4.390625 L 1.890625 0 Z M 0.6875 0 "/></g></g></g><g fill="#ffffff" fill-opacity="1"><g transform="translate(77.377792, 190.499987)"><g><path d="M 0.734375 0 L 0.734375 -7.109375 L 2.03125 -7.109375 L 2.03125 0 Z M 0.734375 0 "/></g></g></g><g fill="#ffffff" fill-opacity="1"><g transform="translate(87.762498, 190.499987)"><g><path d="M 0.734375 0 L 0.734375 -7.109375 L 2.03125 -7.109375 L 2.03125 -1.140625 L 5.203125 -1.140625 L 5.109375 0 Z M 0.734375 0 "/></g></g></g><g fill="#ffffff" fill-opacity="1"><g transform="translate(100.529074, 190.499987)"><g><path d="M -0.09375 0 L 2.9375 -7.109375 L 4.03125 -7.109375 L 6.953125 0 L 5.625 0 L 4.984375 -1.625 L 1.890625 -1.625 L 1.21875 0 Z M 2.328125 -2.71875 L 4.5625 -2.71875 L 3.46875 -5.515625 Z M 2.328125 -2.71875 "/></g></g></g><g fill="#ffffff" fill-opacity="1"><g transform="translate(115.037016, 190.499987)"><g><path d="M 5.40625 -7.109375 L 6.65625 -7.109375 L 6.65625 0 L 5.515625 0 L 1.984375 -4.953125 L 1.984375 0 L 0.734375 0 L 0.734375 -7.109375 L 1.875 -7.109375 L 5.40625 -2.15625 Z M 5.40625 -7.109375 "/></g></g></g><g fill="#ffffff" fill-opacity="1"><g transform="translate(130.045352, 190.499987)"><g><path d="M -0.09375 0 L 2.9375 -7.109375 L 4.03125 -7.109375 L 6.953125 0 L 5.625 0 L 4.984375 -1.625 L 1.890625 -1.625 L 1.21875 0 Z M 2.328125 -2.71875 L 4.5625 -2.71875 L 3.46875 -5.515625 Z M 2.328125 -2.71875 "/></g></g></g><g fill="#ffffff" fill-opacity="1"><g transform="translate(144.553295, 190.499987)"><g/></g></g><g fill="#ffffff" fill-opacity="1"><g transform="translate(154.607747, 190.499987)"><g><path d="M 4.203125 -3.703125 L 7.015625 -3.703125 L 7.015625 0 L 5.984375 0 L 5.875 -0.765625 C 5.644531 -0.453125 5.347656 -0.226562 4.984375 -0.09375 C 4.628906 0.03125 4.234375 0.09375 3.796875 0.09375 C 3.117188 0.09375 2.523438 -0.046875 2.015625 -0.328125 C 1.515625 -0.609375 1.128906 -1.007812 0.859375 -1.53125 C 0.585938 -2.0625 0.453125 -2.691406 0.453125 -3.421875 C 0.453125 -4.171875 0.601562 -4.828125 0.90625 -5.390625 C 1.21875 -5.960938 1.660156 -6.410156 2.234375 -6.734375 C 2.804688 -7.054688 3.476562 -7.21875 4.25 -7.21875 C 4.875 -7.21875 5.410156 -7.097656 5.859375 -6.859375 C 6.304688 -6.628906 6.675781 -6.28125 6.96875 -5.8125 L 5.96875 -5.078125 C 5.789062 -5.398438 5.546875 -5.632812 5.234375 -5.78125 C 4.929688 -5.9375 4.597656 -6.015625 4.234375 -6.015625 C 3.734375 -6.015625 3.300781 -5.90625 2.9375 -5.6875 C 2.570312 -5.476562 2.289062 -5.175781 2.09375 -4.78125 C 1.894531 -4.394531 1.796875 -3.945312 1.796875 -3.4375 C 1.796875 -2.6875 1.984375 -2.101562 2.359375 -1.6875 C 2.742188 -1.28125 3.265625 -1.078125 3.921875 -1.078125 C 4.234375 -1.078125 4.53125 -1.132812 4.8125 -1.25 C 5.09375 -1.363281 5.320312 -1.53125 5.5 -1.75 C 5.675781 -1.976562 5.765625 -2.253906 5.765625 -2.578125 L 5.765625 -2.640625 L 4.203125 -2.640625 Z M 4.203125 -3.703125 "/></g></g></g><g fill="#ffffff" fill-opacity="1"><g transform="translate(169.756193, 190.499987)"><g><path d="M -0.09375 0 L 2.9375 -7.109375 L 4.03125 -7.109375 L 6.953125 0 L 5.625 0 L 4.984375 -1.625 L 1.890625 -1.625 L 1.21875 0 Z M 2.328125 -2.71875 L 4.5625 -2.71875 L 3.46875 -5.515625 Z M 2.328125 -2.71875 "/></g></g></g><g fill="#ffffff" fill-opacity="1"><g transform="translate(184.264131, 190.499987)"><g><path d="M 0.734375 0 L 0.734375 -7.109375 L 3.09375 -7.109375 C 4 -7.109375 4.691406 -6.941406 5.171875 -6.609375 C 5.660156 -6.285156 5.90625 -5.804688 5.90625 -5.171875 C 5.90625 -4.828125 5.820312 -4.519531 5.65625 -4.25 C 5.488281 -3.976562 5.25 -3.765625 4.9375 -3.609375 C 5.257812 -3.484375 5.519531 -3.28125 5.71875 -3 C 5.914062 -2.71875 6.015625 -2.394531 6.015625 -2.03125 C 6.015625 -1.414062 5.78125 -0.921875 5.3125 -0.546875 C 4.851562 -0.179688 4.222656 0 3.421875 0 Z M 3.109375 -6.046875 L 2 -6.046875 L 2 -4.109375 L 3.09375 -4.109375 C 3.601562 -4.109375 3.976562 -4.1875 4.21875 -4.34375 C 4.46875 -4.507812 4.59375 -4.765625 4.59375 -5.109375 C 4.59375 -5.429688 4.472656 -5.664062 4.234375 -5.8125 C 4.003906 -5.96875 3.628906 -6.046875 3.109375 -6.046875 Z M 2 -1.0625 L 3.390625 -1.0625 C 3.796875 -1.0625 4.117188 -1.140625 4.359375 -1.296875 C 4.597656 -1.460938 4.71875 -1.71875 4.71875 -2.0625 C 4.71875 -2.707031 4.265625 -3.03125 3.359375 -3.03125 L 2 -3.03125 Z M 2 -1.0625 "/></g></g></g><g fill="#ffffff" fill-opacity="1"><g transform="translate(198.221642, 190.499987)"><g><path d="M 0.734375 0 L 0.734375 -7.109375 L 3.09375 -7.109375 C 4 -7.109375 4.691406 -6.941406 5.171875 -6.609375 C 5.660156 -6.285156 5.90625 -5.804688 5.90625 -5.171875 C 5.90625 -4.828125 5.820312 -4.519531 5.65625 -4.25 C 5.488281 -3.976562 5.25 -3.765625 4.9375 -3.609375 C 5.257812 -3.484375 5.519531 -3.28125 5.71875 -3 C 5.914062 -2.71875 6.015625 -2.394531 6.015625 -2.03125 C 6.015625 -1.414062 5.78125 -0.921875 5.3125 -0.546875 C 4.851562 -0.179688 4.222656 0 3.421875 0 Z M 3.109375 -6.046875 L 2 -6.046875 L 2 -4.109375 L 3.09375 -4.109375 C 3.601562 -4.109375 3.976562 -4.1875 4.21875 -4.34375 C 4.46875 -4.507812 4.59375 -4.765625 4.59375 -5.109375 C 4.59375 -5.429688 4.472656 -5.664062 4.234375 -5.8125 C 4.003906 -5.96875 3.628906 -6.046875 3.109375 -6.046875 Z M 2 -1.0625 L 3.390625 -1.0625 C 3.796875 -1.0625 4.117188 -1.140625 4.359375 -1.296875 C 4.597656 -1.460938 4.71875 -1.71875 4.71875 -2.0625 C 4.71875 -2.707031 4.265625 -3.03125 3.359375 -3.03125 L 2 -3.03125 Z M 2 -1.0625 "/></g></g></g><g fill="#ffffff" fill-opacity="1"><g transform="translate(212.179153, 190.499987)"><g><path d="M -0.09375 0 L 2.9375 -7.109375 L 4.03125 -7.109375 L 6.953125 0 L 5.625 0 L 4.984375 -1.625 L 1.890625 -1.625 L 1.21875 0 Z M 2.328125 -2.71875 L 4.5625 -2.71875 L 3.46875 -5.515625 Z M 2.328125 -2.71875 "/></g></g></g><g fill="#ffffff" fill-opacity="1"><g transform="translate(226.687102, 190.499987)"><g><path d="M 2.9375 0.09375 C 2.101562 0.09375 1.453125 -0.09375 0.984375 -0.46875 C 0.523438 -0.84375 0.257812 -1.390625 0.1875 -2.109375 L 1.40625 -2.296875 C 1.53125 -1.441406 2.0625 -1.015625 3 -1.015625 C 3.40625 -1.015625 3.722656 -1.09375 3.953125 -1.25 C 4.179688 -1.414062 4.296875 -1.644531 4.296875 -1.9375 C 4.296875 -2.207031 4.179688 -2.410156 3.953125 -2.546875 C 3.722656 -2.679688 3.359375 -2.8125 2.859375 -2.9375 C 2.390625 -3.050781 1.988281 -3.1875 1.65625 -3.34375 C 1.320312 -3.5 1.066406 -3.707031 0.890625 -3.96875 C 0.710938 -4.238281 0.625 -4.59375 0.625 -5.03125 C 0.625 -5.457031 0.734375 -5.832031 0.953125 -6.15625 C 1.171875 -6.488281 1.46875 -6.75 1.84375 -6.9375 C 2.226562 -7.125 2.671875 -7.21875 3.171875 -7.21875 C 3.835938 -7.21875 4.378906 -7.039062 4.796875 -6.6875 C 5.210938 -6.34375 5.457031 -5.867188 5.53125 -5.265625 L 4.390625 -5.0625 C 4.253906 -5.757812 3.828125 -6.109375 3.109375 -6.109375 C 2.765625 -6.109375 2.484375 -6.015625 2.265625 -5.828125 C 2.046875 -5.648438 1.9375 -5.414062 1.9375 -5.125 C 1.9375 -4.832031 2.039062 -4.609375 2.25 -4.453125 C 2.46875 -4.296875 2.835938 -4.15625 3.359375 -4.03125 C 3.816406 -3.925781 4.210938 -3.800781 4.546875 -3.65625 C 4.878906 -3.519531 5.132812 -3.320312 5.3125 -3.0625 C 5.5 -2.8125 5.59375 -2.460938 5.59375 -2.015625 C 5.59375 -1.609375 5.476562 -1.242188 5.25 -0.921875 C 5.03125 -0.609375 4.722656 -0.359375 4.328125 -0.171875 C 3.929688 0.00390625 3.46875 0.09375 2.9375 0.09375 Z M 2.9375 0.09375 "/></g></g></g><g fill="#ffffff" fill-opacity="1"><g transform="translate(240.174238, 190.499987)"><g><path d="M 2.9375 0.09375 C 2.101562 0.09375 1.453125 -0.09375 0.984375 -0.46875 C 0.523438 -0.84375 0.257812 -1.390625 0.1875 -2.109375 L 1.40625 -2.296875 C 1.53125 -1.441406 2.0625 -1.015625 3 -1.015625 C 3.40625 -1.015625 3.722656 -1.09375 3.953125 -1.25 C 4.179688 -1.414062 4.296875 -1.644531 4.296875 -1.9375 C 4.296875 -2.207031 4.179688 -2.410156 3.953125 -2.546875 C 3.722656 -2.679688 3.359375 -2.8125 2.859375 -2.9375 C 2.390625 -3.050781 1.988281 -3.1875 1.65625 -3.34375 C 1.320312 -3.5 1.066406 -3.707031 0.890625 -3.96875 C 0.710938 -4.238281 0.625 -4.59375 0.625 -5.03125 C 0.625 -5.457031 0.734375 -5.832031 0.953125 -6.15625 C 1.171875 -6.488281 1.46875 -6.75 1.84375 -6.9375 C 2.226562 -7.125 2.671875 -7.21875 3.171875 -7.21875 C 3.835938 -7.21875 4.378906 -7.039062 4.796875 -6.6875 C 5.210938 -6.34375 5.457031 -5.867188 5.53125 -5.265625 L 4.390625 -5.0625 C 4.253906 -5.757812 3.828125 -6.109375 3.109375 -6.109375 C 2.765625 -6.109375 2.484375 -6.015625 2.265625 -5.828125 C 2.046875 -5.648438 1.9375 -5.414062 1.9375 -5.125 C 1.9375 -4.832031 2.039062 -4.609375 2.25 -4.453125 C 2.46875 -4.296875 2.835938 -4.15625 3.359375 -4.03125 C 3.816406 -3.925781 4.210938 -3.800781 4.546875 -3.65625 C 4.878906 -3.519531 5.132812 -3.320312 5.3125 -3.0625 C 5.5 -2.8125 5.59375 -2.460938 5.59375 -2.015625 C 5.59375 -1.609375 5.476562 -1.242188 5.25 -0.921875 C 5.03125 -0.609375 4.722656 -0.359375 4.328125 -0.171875 C 3.929688 0.00390625 3.46875 0.09375 2.9375 0.09375 Z M 2.9375 0.09375 "/></g></g></g><g fill="#ffffff" fill-opacity="1"><g transform="translate(253.661373, 190.499987)"><g><path d="M 3.890625 0.09375 C 3.171875 0.09375 2.550781 -0.0390625 2.03125 -0.3125 C 1.519531 -0.59375 1.128906 -0.992188 0.859375 -1.515625 C 0.585938 -2.046875 0.453125 -2.679688 0.453125 -3.421875 C 0.453125 -4.160156 0.597656 -4.816406 0.890625 -5.390625 C 1.179688 -5.960938 1.59375 -6.410156 2.125 -6.734375 C 2.664062 -7.054688 3.304688 -7.21875 4.046875 -7.21875 C 4.703125 -7.21875 5.273438 -7.066406 5.765625 -6.765625 C 6.265625 -6.472656 6.648438 -6.0625 6.921875 -5.53125 C 7.191406 -5.007812 7.328125 -4.398438 7.328125 -3.703125 C 7.328125 -2.929688 7.175781 -2.257812 6.875 -1.6875 C 6.582031 -1.125 6.175781 -0.6875 5.65625 -0.375 C 5.144531 -0.0625 4.554688 0.09375 3.890625 0.09375 Z M 3.859375 -1.078125 C 4.273438 -1.078125 4.644531 -1.179688 4.96875 -1.390625 C 5.289062 -1.597656 5.546875 -1.894531 5.734375 -2.28125 C 5.921875 -2.664062 6.015625 -3.140625 6.015625 -3.703125 C 6.015625 -4.410156 5.832031 -4.976562 5.46875 -5.40625 C 5.101562 -5.832031 4.617188 -6.046875 4.015625 -6.046875 C 3.578125 -6.046875 3.191406 -5.9375 2.859375 -5.71875 C 2.523438 -5.5 2.257812 -5.195312 2.0625 -4.8125 C 1.863281 -4.425781 1.765625 -3.972656 1.765625 -3.453125 C 1.765625 -2.691406 1.953125 -2.101562 2.328125 -1.6875 C 2.703125 -1.28125 3.210938 -1.078125 3.859375 -1.078125 Z M 3.859375 -1.078125 "/></g></g></g><g fill="#ffffff" fill-opacity="1"><g transform="translate(269.060016, 190.499987)"><g><path d="M 5.25 -7.109375 L 6.546875 -7.109375 L 3.953125 0 L 2.140625 0 L -0.015625 -7.109375 L 1.375 -7.109375 L 3.125 -1.09375 Z M 5.25 -7.109375 "/></g></g></g><g fill="#ffffff" fill-opacity="1"><g transform="translate(282.967493, 190.499987)"><g><path d="M -0.09375 0 L 2.9375 -7.109375 L 4.03125 -7.109375 L 6.953125 0 L 5.625 0 L 4.984375 -1.625 L 1.890625 -1.625 L 1.21875 0 Z M 2.328125 -2.71875 L 4.5625 -2.71875 L 3.46875 -5.515625 Z M 2.328125 -2.71875 "/></g></g></g><g fill="#ffffff" fill-opacity="1"><g transform="translate(297.478213, 190.499987)"><g/></g></g></svg>